# xmcd
#
# Track frame offsets:
#	150
#	17997
#	40424
#	60831
#	76957
#	92348
#	113200
#	132017
#	154861
#	171025
#	194538
#	202169
#
# Disc length: 2894 seconds
#
# Revision: 1
# Processed by: cddbd v1.5.2PL0 Copyright (c) Steve Scherf et al.
# Submitted via: EasyCDDAExtractor 2010.6.0.0
#
DISCID=980b4c0c
DTITLE=Maccabeats - Voices from the Heights
DYEAR=2010
DGENRE=Acapella
TTITLE0=Ma Rabu
TTITLE1=Arim Roshi
TTITLE2=Aleinu
TTITLE3=Oseh Shalom
TTITLE4=Lecha Dodi
TTITLE5=HaMalach HaGoel
TTITLE6=Go the Distance
TTITLE7=Shaleshudis Medley
TTITLE8=Bad Day
TTITLE9=Ma Avarech
TTITLE10=HaTikva
TTITLE11=One Day
EXTD=
EXTT0=
EXTT1=
EXTT2=
EXTT3=
EXTT4=
EXTT5=
EXTT6=
EXTT7=
EXTT8=
EXTT9=
EXTT10=
EXTT11=
PLAYORDER=
